<?xml version="1.0" encoding="UTF-8" standalone="no"?>
<!DOCTYPE svg PUBLIC "-//W3C//DTD SVG 1.1//EN" "http://www.w3.org/Graphics/SVG/1.1/DTD/svg11.dtd">
<svg width="100%" height="100%" viewBox="0 0 1046 312" version="1.1" xmlns="http://www.w3.org/2000/svg" xmlns:xlink="http://www.w3.org/1999/xlink" xml:space="preserve" xmlns:serif="http://www.serif.com/" style="fill-rule:evenodd;clip-rule:evenodd;stroke-linecap:round;stroke-linejoin:round;stroke-miterlimit:1.5;">
    <g transform="matrix(0.974828,0,0,1.10379,-179.229,-15.1956)">
        <rect x="183.857" y="13.767" width="1072.78" height="282.652" style="fill:none;"/>
    </g>
    <g transform="matrix(1.0651,0,0,1.0651,437.634,-30.5434)">
        <g transform="matrix(0.542437,0,0,0.542437,95.2964,-115.184)">
            <path d="M818.021,386.242C819.151,371.904 860.286,369.07 859.24,381.744C858.533,390.304 859.507,452.598 859.24,461.089C858.973,469.581 847.301,459.112 845.727,438.847C842.237,393.937 817.416,393.919 818.021,386.242Z" style="fill:rgb(95,116,255);fill-opacity:0.12;"/>
        </g>
        <g transform="matrix(0.395687,-0.0781744,0.0804705,0.407309,63.4394,70.645)">
            <path d="M838.246,400.654C839.376,386.317 859.964,389.387 863.571,401.581C870.446,424.821 869.369,475.583 864.087,476.326C855.433,477.545 837.64,408.331 838.246,400.654Z" style="fill:rgb(95,116,255);fill-opacity:0.12;"/>
        </g>
        <g transform="matrix(1.40791,-4.50653,2.56149,0.800249,-2594.07,4967.71)">
            <path d="M1137.68,513.762C1138.15,516.48 1149.9,578.543 1146.73,570.914C1145.46,567.875 1139.4,543.365 1137.69,538.812C1135.62,533.291 1136.77,508.442 1137.68,513.762Z" style="fill:rgb(89,248,232);fill-opacity:0.2;"/>
        </g>
        <g transform="matrix(-5.42055,-0.119622,-0.0592076,2.68294,6577.24,-1066.66)">
            <path d="M1137.68,513.762C1138.15,516.48 1139.4,543.365 1137.69,538.812C1135.62,533.291 1136.77,508.442 1137.68,513.762Z" style="fill:rgb(89,248,232);fill-opacity:0.2;"/>
        </g>
        <g transform="matrix(-0.700073,0,0,0.747098,986.795,47.0146)">
            <path d="M795.142,131.513C788.692,137.306 787.738,149.443 792.582,150.711C797.403,151.973 802.16,147.269 804.471,141.963" style="fill:none;stroke:rgb(95,116,255);stroke-width:2.07px;"/>
        </g>
        <g transform="matrix(-0.700073,0,0,0.747098,992.263,45.4513)">
            <path d="M806.422,158.878C799.154,155.601 792.331,162.165 790.342,167.177C788.129,172.754 783.663,180.601 783.69,200.639C783.694,203.809 783.09,208.296 783.308,208.281C784.364,208.212 789.322,207.81 791.089,207.613C796.722,206.988 806.127,205.764 811.792,205.517" style="fill:none;stroke:rgb(104,124,255);stroke-width:2.07px;"/>
        </g>
        <g transform="matrix(-0.700073,0,0,0.747098,992.263,45.4513)">
            <path d="M784.582,208.027C780.783,225.71 790.342,247.891 790.342,266.166" style="fill:none;stroke:rgb(104,124,255);stroke-width:2.07px;"/>
        </g>
        <g transform="matrix(-0.563145,0,0,0.693972,883.319,57.9862)">
            <path d="M801.42,241.028C799.419,250.177 798.047,269.496 798.047,269.496L799.733,269.108C787.471,271.203 782.717,265.008 777.807,268.445C774.094,271.044 777.932,274.825 780.793,276.03C786.517,278.44 792.91,276.743 796.155,276.185" style="fill:none;stroke:rgb(104,124,255);stroke-width:2.38px;"/>
        </g>
        <g transform="matrix(-0.542437,0,0,0.542437,1134.18,-612.33)">
            <path d="M1300.53,1578.95C1300.53,1578.95 1309.91,1579.98 1312.27,1578.95" style="fill:none;stroke:rgb(95,116,255);stroke-width:2.77px;"/>
        </g>
        <g transform="matrix(-0.700073,0,0,0.747098,992.263,45.4513)">
            <path d="M798.662,223.95C799.435,224.417 799.745,236.564 800.245,240.348C801.065,246.559 802.164,252.552 803.507,258.66C803.959,260.719 804.331,262.799 804.725,264.869C804.947,266.033 805.917,269.244 805.079,268.406C799.517,262.844 786.966,271.74 798.359,273.986C804.417,275.181 814.1,272.42 814.1,272.42C814.1,272.42 813.918,260.281 814.431,248.993C814.756,241.858 815.974,218.129 810.967,202.692" style="fill:none;stroke:rgb(104,124,255);stroke-width:2.07px;"/>
        </g>
        <g transform="matrix(-0.700073,0,0,0.747098,992.263,45.4513)">
            <path d="M806.422,158.878C808.02,160.158 818.825,164.193 822.998,169.77C826.404,174.322 814.591,193.506 809.523,196.04" style="fill:none;stroke:rgb(95,116,255);stroke-width:2.07px;"/>
        </g>
        <g transform="matrix(-0.700073,0,0,0.747098,992.263,45.4513)">
            <path d="M805.555,196.813C806.037,198.66 807.128,200.306 808.065,201.218C809.369,202.487 813.569,203.967 815.014,200.779C816.743,196.962 810.142,196.273 809.952,196.178C808.182,195.293 804.018,198.195 804.018,196.217C804.018,190.742 812.842,177.793 810.743,176.408" style="fill:none;stroke:rgb(95,116,255);stroke-width:2.07px;"/>
        </g>
        <g transform="matrix(-0.734326,0.351802,0.375433,0.783651,954.388,-243.694)">
            <path d="M811.076,175.81C810.219,175.245 808.937,174.771 807.403,174.687" style="fill:none;stroke:rgb(95,116,255);stroke-width:1.78px;"/>
        </g>
        <g transform="matrix(-0.700073,0,0,0.747098,992.263,45.4513)">
            <path d="M791.647,164.408C786.786,168.427 778.279,172.446 777.569,175.996C776.686,180.413 782.023,188.152 781.736,193.309C781.702,193.927 781.656,193.246 781.108,192.956C778.99,191.834 775.468,195.295 775.409,197.278C775.293,201.223 780.575,200.359 782.208,198.182" style="fill:none;stroke:rgb(104,124,255);stroke-width:2.07px;"/>
        </g>
        <g transform="matrix(-0.825764,0.329266,0.30624,0.768016,1043.66,-217.787)">
            <path d="M804.961,137.511C811.51,133.641 794.769,116.03 791.035,128.534C788.859,135.819 798.282,132.438 804.961,137.511Z" style="fill:none;stroke:rgb(95,116,255);stroke-width:1.75px;"/>
        </g>
        <g transform="matrix(1.5842,-0.357152,0.367734,1.63114,-860.762,199.519)">
            <path d="M745.285,128.602C744.164,129.642 744.012,132.599 743.966,132.949C743.439,136.991 746.785,141.079 750.822,138.01C755.739,134.273 752.098,122.285 745.285,128.602Z" style="fill:none;stroke:rgb(95,116,255);stroke-width:0.91px;"/>
        </g>
        <g transform="matrix(1.66777,0,0,1.67207,-869.092,-72.7887)">
            <path d="M748.501,141.426C750.721,141.44 754.877,140.871 755.559,140.671C759.24,139.588 764.089,138.169 766.719,135.134C767.482,134.254 767.062,126.345 769.768,129.64C771.336,131.549 769.539,134.272 766.976,134.426C766.901,134.43 769.07,134.45 769.12,134.55C769.936,136.184 766.491,139.475 765.659,140.195C761.166,144.085 756.794,146.451 751.402,148.762" style="fill:none;stroke:rgb(95,116,255);stroke-width:0.9px;"/>
        </g>
        <g transform="matrix(1.66777,0,0,1.67207,-869.092,-72.7887)">
            <path d="M748.501,141.426C745.365,140.57 741.995,142.027 740.419,144.131C737.947,147.432 734.513,157.103 732.605,162.513C731.18,166.554 735.201,163.571 735.942,162.364C736.459,161.52 736.981,160.68 737.456,159.812C737.513,159.707 741.186,152.239 741.153,152.255" style="fill:none;stroke:rgb(95,116,255);stroke-width:0.9px;"/>
        </g>
        <g transform="matrix(1.66777,0,0,1.67207,-869.092,-72.7887)">
            <path d="M737.997,158.665C737.319,159.004 737.643,164.906 737.607,165.565C737.27,171.866 735.705,191.571 737.607,192.194C739.098,192.682 740.751,189.72 741.85,189.385C742.74,189.114 744.696,180.484 744.809,176.811C744.816,176.615 745.009,172.443 744.788,172.443C744.632,172.443 744.387,176.329 744.377,176.487C744.193,179.513 744.539,188.396 745.417,191.336C745.805,192.633 746.908,190.713 748.501,189.404C751.316,187.089 751.234,180.278 751.817,176.984C753.652,166.614 752.527,156.583 751.06,146.316" style="fill:none;stroke:rgb(95,116,255);stroke-width:0.9px;"/>
        </g>
        <g transform="matrix(2.29582,0,0,2.73509,-856.695,-959.686)">
            <path d="M526.465,424.121C526.465,424.121 524.176,423.81 524.154,424.755C524.133,425.701 526.136,426.913 527.168,425.255" style="fill:none;stroke:rgb(95,116,255);stroke-width:0.59px;"/>
        </g>
        <g transform="matrix(1.66777,0,0,1.67207,-869.092,-72.7887)">
            <path d="M737.607,165.152C740.542,165.113 750.795,163.37 752.771,163.37" style="fill:none;stroke:rgb(95,116,255);stroke-width:0.9px;"/>
        </g>
        <g transform="matrix(1.66777,0,0,1.67207,-869.092,-72.7887)">
            <path d="M740.401,190.567C742.926,186.877 746.402,193.137 742.093,193.267C740.944,193.302 739.991,192.219 739.404,192.219" style="fill:none;stroke:rgb(95,116,255);stroke-width:0.9px;"/>
        </g>
        <g transform="matrix(1.66777,0,0,1.67207,-857.562,-72.7887)">
            <path d="M740.401,190.567C742.926,186.877 746.402,193.137 742.093,193.267C740.944,193.302 739.991,192.219 739.404,192.219" style="fill:none;stroke:rgb(95,116,255);stroke-width:0.9px;"/>
        </g>
        <g transform="matrix(1.5842,-0.357152,0.367734,1.63114,-630.108,-298.476)">
            <path d="M544.962,387.691C544.962,387.691 545.13,389.286 542.504,390.896C539.878,392.505 541.135,390.508 541.135,390.508C541.135,390.508 537.876,398.042 535.889,399.418" style="fill:none;stroke:rgb(95,116,255);stroke-width:0.91px;"/>
        </g>
        <g transform="matrix(1.70991,0,0,1.60266,-545.218,-477.759)">
            <path d="M561.799,387.738C561.799,387.738 565.964,381.506 568.212,380.172" style="fill:none;stroke:rgb(95,116,255);stroke-width:0.91px;"/>
        </g>
        <g transform="matrix(0.825492,0,0,0.825492,66.8387,-251.827)">
            <path d="M479.354,448.979C479.354,455.441 480.502,471.203 480.636,477.664C481.011,495.847 476.918,514.459 478.312,532.573" style="fill:none;stroke:rgb(95,116,255);stroke-width:1.82px;"/>
        </g>
        <g transform="matrix(0.825492,0,0,0.825492,66.8387,-251.827)">
            <path d="M479.354,448.979C479.063,448.708 481.79,447.707 482.163,447.587C486.184,446.286 490.143,444.858 494.114,443.404C503.18,440.082 512.105,436.445 521.137,433.046C524.022,431.96 594.418,406.121 596.364,406.554C599.209,407.186 598.991,435.193 598.953,438.225C598.558,469.852 599.087,502.834 599.087,534.339" style="fill:none;stroke:rgb(95,116,255);stroke-width:1.82px;"/>
        </g>
        <g transform="matrix(0.825492,0,0,0.825492,66.8387,-251.827)">
            <path d="M478.312,532.573C477.577,532.956 510.537,532.554 519.743,533.105C549.021,534.855 570.297,536.139 599.087,534.339" style="fill:none;stroke:rgb(95,116,255);stroke-width:1.82px;"/>
        </g>
        <g transform="matrix(0.825492,0,0,0.825492,66.8387,-251.827)">
            <path d="M479.308,504.687C483.924,500.994 487.64,496.229 491.525,491.806C498.465,483.904 505.941,468.099 515.626,463.256C519.946,461.096 541.451,487.535 545.939,492.023" style="fill:none;stroke:rgb(95,116,255);stroke-width:1.82px;"/>
        </g>
        <g transform="matrix(0.825492,0,0,0.825492,66.8387,-251.827)">
            <path d="M530.943,506.971C540.605,500.703 566.2,468.364 570.864,468.119C570.864,468.119 598.935,497.135 598.935,499.438" style="fill:none;stroke:rgb(95,116,255);stroke-width:1.82px;"/>
        </g>
        <g transform="matrix(0.825492,0,0,0.825492,66.8387,-251.827)">
            <path d="M566.484,427.504C557.943,422.272 544.51,437.381 556.583,445.275C567.551,452.446 576.562,431.283 566.484,427.504" style="fill:none;stroke:rgb(95,116,255);stroke-width:1.82px;"/>
        </g>
    </g>
</svg>
